<?xml version="1.0" encoding="UTF-8"?><svg id="Layer_2" xmlns="http://www.w3.org/2000/svg" viewBox="0 0 114.79 54.27"><defs><style>.cls-1{fill:#fff;}</style></defs><g id="Layer_1-2"><path class="cls-1" d="M0,14.13c0-1.77,1.44-3.21,3.21-3.21,2.86,0,4.28-1.55,6.55-4.3C12.2,3.67,15.24,0,21.26,0c6.02,0,9.06,3.67,11.5,6.63,2.27,2.74,3.69,4.3,6.55,4.3,2.87,0,4.29-1.55,6.56-4.3C48.32,3.67,51.36,0,57.38,0c6.02,0,9.06,3.67,11.5,6.63,2.27,2.74,3.69,4.3,6.55,4.3s4.29-1.55,6.56-4.3C84.44,3.67,87.48,0,93.51,0c6.03,0,9.07,3.67,11.51,6.63,2.27,2.74,3.69,4.3,6.56,4.3,1.77,0,3.21,1.44,3.21,3.21,0,1.77-1.44,3.21-3.21,3.21-6.03,0-9.06-3.67-11.51-6.62-2.27-2.74-3.7-4.3-6.56-4.3s-4.29,1.55-6.56,4.3c-2.44,2.95-5.48,6.63-11.51,6.63-6.03,0-9.06-3.67-11.5-6.63-2.27-2.74-3.69-4.3-6.55-4.3-2.87,0-4.29,1.55-6.56,4.3-2.44,2.95-5.48,6.63-11.51,6.63-6.03,0-9.06-3.67-11.5-6.63-2.27-2.74-3.69-4.3-6.55-4.3-2.86,0-4.28,1.55-6.55,4.3-2.44,2.95-5.48,6.63-11.5,6.63C1.44,17.34,0,15.91,0,14.13ZM3.21,54.27c6.03,0,9.06-3.68,11.5-6.63,2.27-2.74,3.69-4.3,6.55-4.3,2.86,0,4.28,1.55,6.55,4.3,2.44,2.95,5.48,6.63,11.5,6.63,6.03,0,9.06-3.67,11.51-6.63,2.27-2.74,3.69-4.3,6.56-4.3,2.86,0,4.28,1.55,6.55,4.3,2.44,2.95,5.48,6.63,11.5,6.63,6.03,0,9.07-3.67,11.51-6.63,2.27-2.74,3.69-4.3,6.56-4.3s4.29,1.55,6.56,4.3c2.44,2.95,5.48,6.62,11.51,6.62,1.77,0,3.21-1.44,3.21-3.21,0-1.77-1.44-3.21-3.21-3.21-2.87,0-4.29-1.55-6.56-4.3-2.44-2.95-5.48-6.63-11.51-6.63-6.03,0-9.06,3.67-11.51,6.62-2.27,2.74-3.7,4.3-6.56,4.3-2.86,0-4.29-1.55-6.55-4.3-2.44-2.95-5.48-6.63-11.5-6.63s-9.06,3.67-11.51,6.63c-2.27,2.74-3.69,4.3-6.56,4.3s-4.29-1.55-6.55-4.3c-2.44-2.95-5.48-6.63-11.5-6.63-6.02,0-9.06,3.67-11.5,6.63-2.27,2.74-3.69,4.3-6.55,4.3-1.77,0-3.21,1.44-3.21,3.21s1.44,3.21,3.21,3.21Z"/></g></svg>