<?xml version="1.0" encoding="UTF-8"?><svg id="Layer_2" xmlns="http://www.w3.org/2000/svg" viewBox="0 0 29.19 29.19"><defs><style>.cls-1{fill:#ee3e23;fill-rule:evenodd;}</style></defs><g id="Layer_1-2"><path class="cls-1" d="M9.8,28.62c-.41,.6-1.24,.76-1.84,.34l-4.39-3.02c-.6-.41-.76-1.24-.34-1.84l5.07-7.38c.41-.6,.26-1.43-.34-1.84L.57,9.8c-.6-.41-.76-1.24-.34-1.84L3.25,3.56c.41-.6,1.24-.76,1.84-.34l7.38,5.08c.6,.41,1.43,.26,1.84-.34L19.39,.57c.41-.6,1.24-.76,1.84-.34l4.39,3.02c.6,.41,.76,1.24,.34,1.84l-5.07,7.38c-.41,.6-.26,1.43,.34,1.84l7.38,5.08c.6,.41,.76,1.24,.34,1.84l-3.02,4.39c-.41,.6-1.24,.76-1.84,.34l-7.38-5.08"/></g></svg>