<?xml version="1.0" encoding="UTF-8"?><svg xmlns="http://www.w3.org/2000/svg" viewBox="0 0 87.04 87.71"><defs><style>.cls-1{fill:#fff;mix-blend-mode:multiply;}.cls-2{isolation:isolate;}</style></defs><g class="cls-2"><g id="Layer_2"><g id="Layer_1-2"><path class="cls-1" d="M7.59,57.41c.01,1-.37,1.95-1.08,2.67-.72,.73-1.68,1.13-2.72,1.13C1.7,61.22,0,59.52,0,57.44c0-2.13,1.67-3.8,3.8-3.8,2.13,0,3.8,1.66,3.8,3.78ZM3.8,0C1.67,0,0,1.67,0,3.8s1.7,3.78,3.8,3.78c1.03,0,2-.4,2.72-1.13,.71-.72,1.09-1.67,1.08-2.67C7.59,1.66,5.92,0,3.8,0Zm0,80.12C1.67,80.12,0,81.79,0,83.93s1.7,3.78,3.8,3.78c1.03,0,2-.4,2.72-1.13,.71-.72,1.09-1.67,1.08-2.67,0-2.12-1.67-3.78-3.8-3.78Zm0-53.63C1.67,26.49,0,28.16,0,30.29,0,32.38,1.7,34.07,3.8,34.07c1.03,0,2-.4,2.72-1.13,.71-.72,1.09-1.67,1.08-2.67,0-2.12-1.67-3.78-3.8-3.78ZM83.25,7.58c1.03,0,2-.4,2.72-1.13,.71-.72,1.09-1.67,1.08-2.67,0-2.12-1.67-3.78-3.8-3.78s-3.79,1.67-3.79,3.8,1.7,3.78,3.79,3.78ZM30.28,80.12c-2.13,0-3.8,1.67-3.8,3.8s1.7,3.78,3.8,3.78c1.03,0,1.99-.4,2.71-1.13,.71-.72,1.09-1.67,1.08-2.67,0-2.12-1.66-3.78-3.79-3.78ZM56.77,0c-2.13,0-3.8,1.67-3.8,3.8s1.7,3.78,3.8,3.78c1.03,0,2-.4,2.72-1.13,.71-.72,1.09-1.67,1.08-2.67,0-2.12-1.67-3.78-3.8-3.78Zm0,26.49c-2.13,0-3.8,1.67-3.8,3.8,0,2.08,1.7,3.78,3.8,3.78,1.03,0,2-.4,2.72-1.13,.71-.72,1.09-1.67,1.08-2.67,0-2.12-1.67-3.78-3.8-3.78Zm26.48,53.63c-2.13,0-3.79,1.67-3.79,3.8,0,2.08,1.7,3.78,3.79,3.78,1.03,0,2-.4,2.72-1.13,.71-.72,1.09-1.67,1.08-2.67,0-2.12-1.67-3.78-3.8-3.78Zm0-53.63c-2.13,0-3.79,1.67-3.79,3.8,0,2.08,1.7,3.78,3.79,3.78,1.03,0,2-.4,2.72-1.13,.71-.72,1.09-1.67,1.08-2.67,0-2.12-1.67-3.78-3.8-3.78ZM30.28,53.63c-2.13,0-3.8,1.67-3.8,3.8,0,2.08,1.7,3.78,3.8,3.78,1.03,0,1.99-.4,2.71-1.13,.71-.72,1.09-1.67,1.08-2.67,0-2.12-1.66-3.78-3.79-3.78Zm52.96,0c-2.13,0-3.79,1.67-3.79,3.8,0,2.08,1.7,3.78,3.79,3.78,1.03,0,2-.4,2.72-1.13,.71-.72,1.09-1.67,1.08-2.67,0-2.12-1.67-3.78-3.8-3.78Zm-26.48,0c-2.13,0-3.8,1.67-3.8,3.8,0,2.08,1.7,3.78,3.8,3.78,1.03,0,2-.4,2.72-1.13,.71-.72,1.09-1.67,1.08-2.67,0-2.12-1.67-3.78-3.8-3.78ZM30.28,0c-2.13,0-3.8,1.67-3.8,3.8,0,2.08,1.7,3.78,3.8,3.78,1.03,0,1.99-.4,2.71-1.13,.71-.72,1.09-1.67,1.08-2.67,0-2.12-1.66-3.78-3.79-3.78Zm0,26.49c-2.13,0-3.8,1.67-3.8,3.8s1.7,3.78,3.8,3.78c1.03,0,1.99-.4,2.71-1.13,.71-.72,1.09-1.67,1.08-2.67,0-2.12-1.66-3.78-3.79-3.78Zm26.48,53.63c-2.13,0-3.8,1.67-3.8,3.8s1.7,3.78,3.8,3.78c1.03,0,2-.4,2.72-1.13,.71-.72,1.09-1.67,1.08-2.67,0-2.12-1.67-3.78-3.8-3.78Z"/></g></g></g></svg>