<?xml version="1.0" encoding="UTF-8" standalone="no" ?>
<!DOCTYPE svg PUBLIC "-//W3C//DTD SVG 1.1//EN" "http://www.w3.org/Graphics/SVG/1.1/DTD/svg11.dtd">
<svg xmlns="http://www.w3.org/2000/svg" xmlns:xlink="http://www.w3.org/1999/xlink" version="1.1" width="640" height="480" viewBox="0 0 640 480" xml:space="preserve">
<desc>Created with Fabric.js 3.6.6</desc>
<defs>
</defs>
<g transform="matrix(-7.61 0 0 7.61 389.7 235.81)"  >
<linearGradient id="SVGID_2" gradientUnits="userSpaceOnUse" gradientTransform="matrix(1 0 0 1 0 0)"  x1="0" y1="31.015" x2="65.78000000000002" y2="31.015">
<stop offset="0%" style="stop-color:rgba(255, 194, 46, 1);"/>
<stop offset="100%" style="stop-color:rgba(230, 22, 35, 1);"/>
</linearGradient>
<path style="stroke: none; stroke-width: 1; stroke-dasharray: none; stroke-linecap: butt; stroke-dashoffset: 0; stroke-linejoin: miter; stroke-miterlimit: 4; fill: url(#SVGID_2); fill-rule: evenodd; opacity: 1;"  transform=" translate(-32.89, -31.02)" d="M 8.89 61.71 c 1.09 0.15 2.19 0.26 3.29 0.32 L 0 49.85 v 2.97 l 8.89 8.89 Z m 11.3 0.1 c 0.89 -0.07 1.77 -0.17 2.66 -0.3 L 0 38.65 v 2.97 l 20.19 20.19 Z m 9.12 -1.69 c 0.75 -0.21 1.52 -0.44 2.26 -0.7 L 0 27.84 v 2.97 l 29.31 29.31 Z m 8.04 -2.97 c 0.66 -0.31 1.31 -0.64 1.97 -0.99 L 0 16.84 v 2.96 L 37.35 57.15 Z m 6.77 -4.27 c 0.58 -0.4 1.15 -0.82 1.71 -1.25 L 0 5.8 v 2.97 L 44.12 52.89 Z m 6.07 -4.97 c 0.26 -0.24 0.51 -0.49 0.75 -0.74 c 0.25 -0.25 0.49 -0.5 0.73 -0.74 L 5.24 0 H 2.28 L 50.18 47.91 Z m 5.13 -5.77 c 0.43 -0.56 0.85 -1.13 1.25 -1.71 L 16.15 0 h -2.96 L 55.31 42.14 Z m 4.54 -6.61 c 0.35 -0.65 0.68 -1.31 0.99 -1.97 L 27.3 0 h -2.96 L 59.86 35.53 Z m 3.24 -7.71 c 0.25 -0.74 0.48 -1.51 0.69 -2.27 L 38.24 0 h -2.96 l 27.81 27.81 Z m 2.15 -8.74 c 0.13 -0.88 0.22 -1.77 0.3 -2.67 L 49.14 0 h -2.97 l 19.07 19.07 Z m 0.53 -10.52 c -0.07 -1.09 -0.18 -2.19 -0.32 -3.28 L 60.19 0 h -2.96 l 8.55 8.55 Z" stroke-linecap="round" />
</g>
</svg>