<?xml version="1.0" encoding="UTF-8"?><svg id="Layer_2" xmlns="http://www.w3.org/2000/svg" xmlns:xlink="http://www.w3.org/1999/xlink" viewBox="0 0 65.78 62.04"><defs><style>.cls-1{fill:url(#linear-gradient);fill-rule:evenodd;}</style><linearGradient id="linear-gradient" x1="0" y1="31.02" x2="65.78" y2="31.02" gradientUnits="userSpaceOnUse"><stop offset="0" stop-color="#ffc22e"/><stop offset="1" stop-color="#e61623"/></linearGradient></defs><g id="Layer_1-2"><path class="cls-1" d="M8.89,61.71c1.09,.15,2.19,.26,3.29,.32L0,49.85v2.97l8.89,8.89Zm11.3,.1c.89-.07,1.77-.17,2.66-.3L0,38.65v2.97l20.19,20.19Zm9.12-1.69c.75-.21,1.52-.44,2.26-.7L0,27.84v2.97l29.31,29.31Zm8.04-2.97c.66-.31,1.31-.64,1.97-.99L0,16.84v2.96L37.35,57.15Zm6.77-4.27c.58-.4,1.15-.82,1.71-1.25L0,5.8v2.97L44.12,52.89Zm6.07-4.97c.26-.24,.51-.49,.75-.74,.25-.25,.49-.5,.73-.74L5.24,0H2.28L50.18,47.91Zm5.13-5.77c.43-.56,.85-1.13,1.25-1.71L16.15,0h-2.96L55.31,42.14Zm4.54-6.61c.35-.65,.68-1.31,.99-1.97L27.3,0h-2.96L59.86,35.53Zm3.24-7.71c.25-.74,.48-1.51,.69-2.27L38.24,0h-2.96l27.81,27.81Zm2.15-8.74c.13-.88,.22-1.77,.3-2.67L49.14,0h-2.97l19.07,19.07Zm.53-10.52c-.07-1.09-.18-2.19-.32-3.28L60.19,0h-2.96l8.55,8.55Z"/></g></svg>